<svg width="50" height="50" viewBox="0 0 50 50" fill="none" xmlns="http://www.w3.org/2000/svg">
<g clip-path="url(#clip0_440_2878)">
<path fill-rule="evenodd" clip-rule="evenodd" d="M25 46.875C30.8016 46.875 36.3656 44.5703 40.468 40.468C44.5703 36.3656 46.875 30.8016 46.875 25C46.875 19.1984 44.5703 13.6344 40.468 9.53204C36.3656 5.42968 30.8016 3.125 25 3.125C19.1984 3.125 13.6344 5.42968 9.53204 9.53204C5.42968 13.6344 3.125 19.1984 3.125 25C3.125 30.8016 5.42968 36.3656 9.53204 40.468C13.6344 44.5703 19.1984 46.875 25 46.875ZM25 50C31.6304 50 37.9893 47.3661 42.6777 42.6777C47.3661 37.9893 50 31.6304 50 25C50 18.3696 47.3661 12.0107 42.6777 7.32233C37.9893 2.63392 31.6304 0 25 0C18.3696 0 12.0107 2.63392 7.32233 7.32233C2.63392 12.0107 0 18.3696 0 25C0 31.6304 2.63392 37.9893 7.32233 42.6777C12.0107 47.3661 18.3696 50 25 50Z" fill="#8A3535"/>
<path d="M24.9414 16.7656C24.0977 16.7656 23.3789 16.8398 22.7852 16.9883C22.1992 17.1289 21.7109 17.2891 21.3203 17.4688C20.8672 17.6719 20.4922 17.9062 20.1953 18.1719C20.1797 18.1484 20.125 18.0625 20.0312 17.9141C19.9375 17.7656 19.8359 17.5977 19.7266 17.4102C19.6172 17.2227 19.5195 17.0352 19.4336 16.8477C19.3477 16.6602 19.3047 16.5195 19.3047 16.4258C19.3047 16.2617 19.3867 16.1172 19.5508 15.9922C19.7148 15.8672 19.9336 15.7617 20.207 15.6758C20.4805 15.582 20.7969 15.5078 21.1562 15.4531C21.5156 15.3984 21.8906 15.3555 22.2812 15.3242C22.6797 15.293 23.0781 15.2734 23.4766 15.2656C23.8828 15.25 24.2656 15.2422 24.625 15.2422C24.9688 15.2422 25.3047 15.2461 25.6328 15.2539C25.9609 15.2617 26.293 15.2773 26.6289 15.3008C26.9648 15.3164 27.3086 15.3359 27.6602 15.3594C28.0117 15.375 28.3789 15.3945 28.7617 15.418C29.0664 15.4336 29.3008 15.4766 29.4648 15.5469C29.6289 15.6172 29.7461 15.7109 29.8164 15.8281C29.8945 15.9375 29.9375 16.0664 29.9453 16.2148C29.9609 16.3633 29.9727 16.5273 29.9805 16.707C29.832 17.2227 29.6133 17.7227 29.3242 18.207C29.043 18.6914 28.7266 19.1484 28.375 19.5781C28.0312 20.0078 27.6758 20.4023 27.3086 20.7617C26.9414 21.1211 26.6016 21.4336 26.2891 21.6992C25.9844 21.9648 25.7266 22.1758 25.5156 22.332C25.3047 22.4883 25.1836 22.5742 25.1523 22.5898C25.9414 22.6992 26.6641 22.875 27.3203 23.1172C27.9844 23.3594 28.5547 23.6836 29.0312 24.0898C29.5156 24.4883 29.8906 24.9766 30.1562 25.5547C30.4219 26.125 30.5547 26.793 30.5547 27.5586C30.5547 28.3242 30.4023 29.0078 30.0977 29.6094C29.8008 30.2109 29.3867 30.7227 28.8555 31.1445C28.332 31.5586 27.7109 31.875 26.9922 32.0938C26.2812 32.3203 25.5078 32.4336 24.6719 32.4336C24.3125 32.4336 23.9258 32.4102 23.5117 32.3633C23.1055 32.3164 22.6992 32.25 22.293 32.1641C21.8867 32.0859 21.4922 31.9883 21.1094 31.8711C20.7344 31.7461 20.4023 31.6094 20.1133 31.4609C19.8242 31.3047 19.5898 31.1367 19.4102 30.957C19.2383 30.7773 19.1523 30.5898 19.1523 30.3945C19.1523 30.2539 19.2109 30.0781 19.3281 29.8672L20.0664 28.5898C20.4336 28.8398 20.8125 29.1016 21.2031 29.375C21.6016 29.6484 22.0078 29.8984 22.4219 30.125C22.8359 30.3516 23.2539 30.5391 23.6758 30.6875C24.0977 30.8281 24.5195 30.8984 24.9414 30.8984C25.4492 30.8984 25.9062 30.8047 26.3125 30.6172C26.7188 30.4219 27.0625 30.1602 27.3438 29.832C27.6328 29.5039 27.8516 29.125 28 28.6953C28.1562 28.2656 28.2344 27.8164 28.2344 27.3477C28.2344 26.707 28.0742 26.1641 27.7539 25.7188C27.4414 25.2734 27.0195 24.9141 26.4883 24.6406C25.9648 24.3672 25.3555 24.1758 24.6602 24.0664C23.9727 23.9492 23.2578 23.8984 22.5156 23.9141V23.2344C22.5156 23.1094 22.5273 23.0117 22.5508 22.9414C22.582 22.8633 22.6133 22.8047 22.6445 22.7656C22.6836 22.7188 22.7188 22.6875 22.75 22.6719C22.7891 22.6484 22.8164 22.6289 22.832 22.6133C23.3477 22.3164 23.8711 21.9336 24.4023 21.4648C24.9336 20.9961 25.4219 20.4961 25.8672 19.9648C26.3203 19.4258 26.7031 18.8789 27.0156 18.3242C27.3359 17.7617 27.5391 17.2422 27.625 16.7656H24.9414Z" fill="#8A3535"/>
<path d="M22.7852 16.9883L23.0185 17.9607L23.0277 17.9584L22.7852 16.9883ZM21.3203 17.4688L21.7294 18.3813L21.7382 18.3772L21.3203 17.4688ZM20.1953 18.1719L19.3633 18.7266L20.0028 19.6859L20.8621 18.9171L20.1953 18.1719ZM20.207 15.6758L20.5069 16.6298L20.5192 16.6259L20.5314 16.6217L20.207 15.6758ZM22.2812 15.3242L22.2031 14.3273L22.2015 14.3274L22.2812 15.3242ZM23.4766 15.2656L23.4962 16.2654L23.5056 16.2652L23.515 16.2649L23.4766 15.2656ZM26.6289 15.3008L26.5593 16.2984L26.5709 16.2992L26.5824 16.2997L26.6289 15.3008ZM27.6602 15.3594L27.5936 16.3572L27.6047 16.3579L27.6158 16.3584L27.6602 15.3594ZM28.7617 15.418L28.7006 16.4161L28.7105 16.4167L28.7617 15.418ZM29.8164 15.8281L28.9589 16.3426L28.9795 16.3769L29.0027 16.4094L29.8164 15.8281ZM29.9453 16.2148L28.9467 16.2674L28.9481 16.2935L28.9508 16.3195L29.9453 16.2148ZM29.9805 16.707L30.9414 16.9837L30.9866 16.8267L30.9795 16.6636L29.9805 16.707ZM29.3242 18.207L28.4654 17.6945L28.4594 17.7049L29.3242 18.207ZM28.375 19.5781L27.601 18.9448L27.5941 18.9534L28.375 19.5781ZM26.2891 21.6992L25.6414 20.9372L25.6319 20.9454L26.2891 21.6992ZM25.1523 22.5898L24.7051 21.6954L21.8208 23.1376L25.015 23.5804L25.1523 22.5898ZM27.3203 23.1172L26.9741 24.0553L26.9777 24.0567L27.3203 23.1172ZM29.0312 24.0898L28.3825 24.8509L28.3892 24.8566L28.396 24.8621L29.0312 24.0898ZM30.1562 25.5547L29.2476 25.9722L29.2498 25.9769L30.1562 25.5547ZM30.0977 29.6094L29.2055 29.1575L29.2009 29.1668L30.0977 29.6094ZM28.8555 31.1445L29.4759 31.9288L29.4774 31.9276L28.8555 31.1445ZM26.9922 32.0938L26.701 31.137L26.6886 31.141L26.9922 32.0938ZM23.5117 32.3633L23.3971 33.3567L23.3992 33.3569L23.5117 32.3633ZM22.293 32.1641L22.4999 31.1857L22.4909 31.1838L22.4818 31.1821L22.293 32.1641ZM21.1094 31.8711L20.7931 32.8198L20.8049 32.8237L20.8167 32.8273L21.1094 31.8711ZM20.1133 31.4609L19.6378 32.3406L19.6471 32.3457L19.6565 32.3505L20.1133 31.4609ZM19.4102 30.957L18.6875 31.6483L18.6952 31.6563L18.703 31.6641L19.4102 30.957ZM19.3281 29.8672L18.4623 29.3668L18.4581 29.3741L18.454 29.3815L19.3281 29.8672ZM20.0664 28.5898L20.6292 27.7632L19.7393 27.1574L19.2006 28.0894L20.0664 28.5898ZM21.2031 29.375L20.6296 30.1943L20.6373 30.1995L21.2031 29.375ZM23.6758 30.6875L23.3439 31.6308L23.3517 31.6336L23.3596 31.6362L23.6758 30.6875ZM26.3125 30.6172L26.7316 31.5251L26.7387 31.5218L26.7458 31.5184L26.3125 30.6172ZM27.3438 29.832L26.5933 29.1709L26.5845 29.1812L27.3438 29.832ZM28 28.6953L27.0602 28.3536L27.0574 28.3612L27.0548 28.3688L28 28.6953ZM27.7539 25.7188L26.9353 26.2932L26.9421 26.3027L27.7539 25.7188ZM26.4883 24.6406L26.0253 25.527L26.0306 25.5298L26.4883 24.6406ZM24.6602 24.0664L24.4921 25.0523L24.5048 25.0543L24.6602 24.0664ZM22.5156 23.9141H21.5156V24.9353L22.5367 24.9138L22.5156 23.9141ZM22.5508 22.9414L21.6223 22.57L21.6114 22.5973L21.6021 22.6252L22.5508 22.9414ZM22.6445 22.7656L21.8763 22.1254L21.8699 22.1331L21.8637 22.1409L22.6445 22.7656ZM22.75 22.6719L23.1972 23.5663L23.2316 23.5491L23.2645 23.5294L22.75 22.6719ZM22.832 22.6133L22.3331 21.7467L22.2184 21.8127L22.1249 21.9062L22.832 22.6133ZM25.8672 19.9648L25.1017 19.3214L25.1008 19.3224L25.8672 19.9648ZM27.0156 18.3242L26.1466 17.8294L26.1444 17.8334L27.0156 18.3242ZM27.625 16.7656L28.6091 16.9431L28.8215 15.7656H27.625V16.7656ZM24.9414 15.7656C24.0443 15.7656 23.2392 15.844 22.5426 16.0181L23.0277 17.9584C23.5186 17.8357 24.151 17.7656 24.9414 17.7656V15.7656ZM22.5518 16.0159C21.9255 16.1662 21.3706 16.3449 20.9024 16.5603L21.7382 18.3772C22.0513 18.2332 22.4729 18.0916 23.0185 17.9607L22.5518 16.0159ZM20.9113 16.5562C20.3863 16.7916 19.9184 17.0778 19.5285 17.4266L20.8621 18.9171C21.066 18.7347 21.3481 18.5522 21.7294 18.3813L20.9113 16.5562ZM21.0274 17.6172C21.0285 17.6189 21.0261 17.6152 21.0174 17.6018C21.0098 17.5899 20.9995 17.5738 20.9862 17.553C20.9598 17.5114 20.9234 17.4539 20.8767 17.3801L19.1858 18.4481C19.2752 18.5897 19.3389 18.69 19.3633 18.7266L21.0274 17.6172ZM20.8767 17.3801C20.7905 17.2436 20.6951 17.0859 20.5903 16.9063L18.8628 17.914C18.9768 18.1094 19.0845 18.2877 19.1858 18.4481L20.8767 17.3801ZM20.5903 16.9063C20.4966 16.7456 20.4142 16.5872 20.3427 16.431L18.5245 17.2643C18.6248 17.4831 18.7377 17.6997 18.8628 17.914L20.5903 16.9063ZM20.3427 16.431C20.3276 16.3982 20.3163 16.3714 20.3079 16.3502C20.2995 16.3287 20.2951 16.3154 20.2933 16.3093C20.2913 16.3028 20.2934 16.3085 20.2964 16.3246C20.2979 16.3329 20.2999 16.3455 20.3016 16.3618C20.3032 16.378 20.3047 16.3996 20.3047 16.4258H18.3047C18.3047 16.7538 18.4337 17.0662 18.5245 17.2643L20.3427 16.431ZM20.3047 16.4258C20.3047 16.5191 20.2791 16.6118 20.2359 16.6879C20.1963 16.7577 20.157 16.7875 20.1568 16.7876L18.9447 15.1968C18.6029 15.4572 18.3047 15.8706 18.3047 16.4258H20.3047ZM20.1568 16.7876C20.2006 16.7543 20.3041 16.6935 20.5069 16.6298L19.9072 14.7218C19.5631 14.8299 19.2291 14.9801 18.9447 15.1968L20.1568 16.7876ZM20.5314 16.6217C20.736 16.5516 20.9921 16.4896 21.3067 16.4417L21.0058 14.4645C20.6017 14.526 20.225 14.6125 19.8827 14.7298L20.5314 16.6217ZM21.3067 16.4417C21.6409 16.3909 21.9922 16.3505 22.361 16.321L22.2015 14.3274C21.789 14.3604 21.3904 14.406 21.0058 14.4645L21.3067 16.4417ZM22.3594 16.3212C22.7384 16.2914 23.1173 16.2729 23.4962 16.2654L23.457 14.2658C23.0389 14.274 22.6209 14.2945 22.2031 14.3273L22.3594 16.3212ZM23.515 16.2649C23.9101 16.2497 24.28 16.2422 24.625 16.2422V14.2422C24.2513 14.2422 23.8556 14.2503 23.4381 14.2664L23.515 16.2649ZM24.625 16.2422C24.9612 16.2422 25.2892 16.246 25.609 16.2536L25.6566 14.2542C25.3202 14.2462 24.9763 14.2422 24.625 14.2422V16.2422ZM25.609 16.2536C25.9215 16.2611 26.2382 16.276 26.5593 16.2984L26.6985 14.3032C26.3477 14.2787 26.0004 14.2624 25.6566 14.2542L25.609 16.2536ZM26.5824 16.2997C26.9114 16.315 27.2484 16.3341 27.5936 16.3572L27.7267 14.3616C27.3687 14.3377 27.0183 14.3178 26.6754 14.3019L26.5824 16.2997ZM27.6158 16.3584C27.9613 16.3737 28.3229 16.393 28.7006 16.4161L28.8228 14.4198C28.4349 14.3961 28.0622 14.3763 27.7046 14.3604L27.6158 16.3584ZM28.7105 16.4167C28.8309 16.4228 28.921 16.4337 28.9857 16.4455C29.0523 16.4577 29.0759 16.4682 29.0709 16.466L29.8588 14.6277C29.5355 14.4892 29.1642 14.4373 28.8129 14.4193L28.7105 16.4167ZM29.0709 16.466C29.1007 16.4788 29.0256 16.4538 28.9589 16.3426L30.6739 15.3136C30.4666 14.9681 30.1571 14.7556 29.8588 14.6277L29.0709 16.466ZM29.0027 16.4094C28.9832 16.382 28.9682 16.3521 28.9585 16.3231C28.9491 16.2947 28.9471 16.2746 28.9467 16.2674L30.9439 16.1623C30.9272 15.8445 30.8305 15.5274 30.6301 15.2469L29.0027 16.4094ZM28.9508 16.3195C28.9639 16.444 28.9743 16.5873 28.9814 16.7505L30.9795 16.6636C30.971 16.4674 30.958 16.2826 30.9398 16.1102L28.9508 16.3195ZM29.0195 16.4304C28.896 16.8592 28.7127 17.2803 28.4655 17.6946L30.1829 18.7195C30.5138 18.165 30.768 17.5861 30.9414 16.9837L29.0195 16.4304ZM28.4594 17.7049C28.2047 18.1436 27.9186 18.5568 27.601 18.9449L29.149 20.2114C29.5345 19.7401 29.8813 19.2392 30.189 18.7092L28.4594 17.7049ZM27.5941 18.9534C27.2739 19.3537 26.9454 19.7179 26.6091 20.0471L28.0081 21.4764C28.4061 21.0868 28.7886 20.6619 29.1559 20.2028L27.5941 18.9534ZM26.6091 20.0471C26.2547 20.3939 25.9323 20.69 25.6414 20.9373L26.9367 22.4612C27.2708 22.1772 27.6281 21.8482 28.0081 21.4764L26.6091 20.0471ZM25.6319 20.9454C25.3378 21.2019 25.102 21.394 24.9204 21.5285L26.1109 23.1356C26.3512 22.9576 26.6309 22.7278 26.9462 22.453L25.6319 20.9454ZM24.9204 21.5285C24.8169 21.6051 24.7402 21.661 24.6879 21.6982C24.6613 21.717 24.6455 21.7278 24.6379 21.7329C24.6341 21.7354 24.6362 21.734 24.6425 21.7301C24.6444 21.7289 24.6689 21.7135 24.7051 21.6954L25.5996 23.4843C25.7003 23.4339 25.811 23.3536 25.8453 23.3292C25.9141 23.2804 26.0034 23.2152 26.1109 23.1356L24.9204 21.5285ZM25.015 23.5804C25.7424 23.6812 26.3939 23.8412 26.9741 24.0553L27.6665 22.179C26.9342 21.9088 26.1404 21.7172 25.2896 21.5993L25.015 23.5804ZM26.9777 24.0567C27.5442 24.2633 28.0074 24.5311 28.3825 24.8509L29.68 23.3288C29.1019 22.8361 28.4246 22.4555 27.6629 22.1777L26.9777 24.0567ZM28.396 24.8621C28.7618 25.1631 29.0441 25.5294 29.2476 25.9722L31.0649 25.1372C30.7371 24.4237 30.2694 23.8135 29.6665 23.3176L28.396 24.8621ZM29.2498 25.9769C29.4419 26.3895 29.5547 26.9078 29.5547 27.5586H31.5547C31.5547 26.6781 31.4018 25.8605 31.0627 25.1325L29.2498 25.9769ZM29.5547 27.5586C29.5547 28.1886 29.4302 28.714 29.2056 29.1575L30.9898 30.0612C31.3745 29.3017 31.5547 28.4598 31.5547 27.5586H29.5547ZM29.2009 29.1668C28.9701 29.6344 28.6505 30.0303 28.2336 30.3614L29.4774 31.9276C30.1229 31.415 30.6314 30.7874 30.9944 30.0519L29.2009 29.1668ZM28.2351 30.3602C27.8212 30.6876 27.3152 30.9502 26.701 31.1371L27.2833 33.0504C28.1067 32.7998 28.8429 32.4295 29.4759 31.9288L28.2351 30.3602ZM26.6886 31.141C26.0868 31.3327 25.417 31.4336 24.6719 31.4336V33.4336C25.5986 33.4336 26.4757 33.3079 27.2958 33.0465L26.6886 31.141ZM24.6719 31.4336C24.3554 31.4336 24.0067 31.4129 23.6242 31.3696L23.3992 33.3569C23.8449 33.4074 24.2696 33.4336 24.6719 33.4336V31.4336ZM23.6263 31.3699C23.2516 31.3266 22.8761 31.2653 22.4999 31.1857L22.086 33.1424C22.5223 33.2347 22.9594 33.3062 23.3971 33.3567L23.6263 31.3699ZM22.4818 31.1821C22.1095 31.1104 21.7497 31.0213 21.4021 30.9149L20.8167 32.8273C21.2347 32.9553 21.664 33.0614 22.1041 33.1461L22.4818 31.1821ZM21.4256 30.9224C21.089 30.8102 20.8054 30.6922 20.5701 30.5714L19.6565 32.3505C19.9993 32.5265 20.3798 32.682 20.7931 32.8198L21.4256 30.9224ZM20.5888 30.5812C20.3614 30.4583 20.2119 30.3445 20.1173 30.2499L18.703 31.6641C18.9678 31.9289 19.2871 32.1511 19.6378 32.3406L20.5888 30.5812ZM20.1328 30.2658C20.1085 30.2404 20.114 30.2391 20.1259 30.265C20.1394 30.2945 20.1523 30.3404 20.1523 30.3945H18.1523C18.1523 30.9124 18.3883 31.3355 18.6875 31.6483L20.1328 30.2658ZM20.1523 30.3945C20.1523 30.4284 20.1489 30.4524 20.1466 30.4646C20.1444 30.4767 20.1428 30.48 20.145 30.4735C20.1471 30.4671 20.152 30.4536 20.1616 30.4326C20.1711 30.4117 20.1843 30.3852 20.2023 30.3528L18.454 29.3815C18.3058 29.6482 18.1523 30.0025 18.1523 30.3945H20.1523ZM20.1939 30.3676L20.9322 29.0903L19.2006 28.0894L18.4623 29.3668L20.1939 30.3676ZM19.5036 29.4164C19.867 29.6638 20.2423 29.9231 20.6297 30.1942L21.7766 28.5558C21.3827 28.28 21.0002 28.0158 20.6292 27.7632L19.5036 29.4164ZM20.6373 30.1995C21.0628 30.4915 21.4976 30.7592 21.9419 31.0023L22.9019 29.2477C22.518 29.0377 22.1404 28.8054 21.769 28.5505L20.6373 30.1995ZM21.9419 31.0023C22.4008 31.2534 22.8682 31.4634 23.3439 31.6308L24.0077 29.7442C23.6396 29.6147 23.2711 29.4497 22.9019 29.2477L21.9419 31.0023ZM23.3596 31.6362C23.8778 31.8089 24.4064 31.8984 24.9414 31.8984V29.8984C24.6327 29.8984 24.3175 29.8473 23.992 29.7388L23.3596 31.6362ZM24.9414 31.8984C25.5744 31.8984 26.1773 31.781 26.7316 31.5251L25.8934 29.7092C25.6352 29.8284 25.3241 29.8984 24.9414 29.8984V31.8984ZM26.7458 31.5184C27.2714 31.2658 27.7277 30.9206 28.103 30.4828L26.5845 29.1812C26.3973 29.3997 26.1661 29.578 25.8792 29.7159L26.7458 31.5184ZM28.0941 30.4931C28.4727 30.0633 28.7559 29.5697 28.9452 29.0218L27.0548 28.3688C26.9472 28.6803 26.7929 28.9445 26.5934 29.171L28.0941 30.4931ZM28.9398 29.0371C29.1369 28.4951 29.2344 27.93 29.2344 27.3477H27.2344C27.2344 27.7028 27.1756 28.0362 27.0602 28.3536L28.9398 29.0371ZM29.2344 27.3477C29.2344 26.5338 29.028 25.7775 28.5657 25.1348L26.9421 26.3027C27.1204 26.5506 27.2344 26.8803 27.2344 27.3477H29.2344ZM28.5725 25.1443C28.158 24.5537 27.6068 24.0916 26.9459 23.7515L26.0306 25.5298C26.4323 25.7365 26.7248 25.9931 26.9354 26.2932L28.5725 25.1443ZM26.9513 23.7543C26.3151 23.4219 25.5982 23.2017 24.8155 23.0786L24.5048 25.0543C25.1127 25.1499 25.6146 25.3125 26.0253 25.527L26.9513 23.7543ZM24.8282 23.0806C24.0744 22.9521 23.296 22.8974 22.4946 22.9143L22.5367 24.9138C23.2196 24.8995 23.8709 24.9463 24.4921 25.0522L24.8282 23.0806ZM23.5156 23.9141V23.2344H21.5156V23.9141H23.5156ZM23.5156 23.2344C23.5156 23.2186 23.516 23.2067 23.5164 23.1983C23.5169 23.1899 23.5173 23.1861 23.5173 23.1865C23.5173 23.1868 23.5165 23.193 23.5142 23.2041C23.5119 23.2151 23.5075 23.2335 23.4995 23.2576L21.6021 22.6252C21.5292 22.8438 21.5156 23.065 21.5156 23.2344H23.5156ZM23.4793 23.3128C23.4847 23.2991 23.4854 23.2994 23.48 23.3095C23.4754 23.3181 23.4584 23.349 23.4254 23.3903L21.8637 22.1409C21.7434 22.2913 21.6688 22.4538 21.6223 22.57L23.4793 23.3128ZM23.4128 23.4058C23.4092 23.4101 23.3933 23.4289 23.3646 23.4544C23.3376 23.4784 23.2819 23.524 23.1972 23.5663L22.3028 21.7774C22.0884 21.8847 21.9475 22.04 21.8763 22.1254L23.4128 23.4058ZM23.2645 23.5294C23.316 23.4984 23.4322 23.4273 23.5391 23.3204L22.1249 21.9062C22.1496 21.8815 22.1707 21.8634 22.1849 21.8518C22.1995 21.8398 22.2112 21.8312 22.2186 21.8259C22.2326 21.8159 22.2396 21.8119 22.2355 21.8144L23.2645 23.5294ZM23.331 23.4799C23.9143 23.144 24.4917 22.7196 25.064 22.2147L23.7407 20.715C23.2505 21.1476 22.781 21.4888 22.3331 21.7467L23.331 23.4799ZM25.064 22.2147C25.6319 21.7135 26.1554 21.1777 26.6336 20.6072L25.1008 19.3224C24.6884 19.8145 24.2352 20.2787 23.7407 20.715L25.064 22.2147ZM26.6327 20.6083C27.1216 20.0267 27.5409 19.4291 27.8869 18.8151L26.1444 17.8334C25.8653 18.3287 25.5191 18.8249 25.1017 19.3214L26.6327 20.6083ZM27.8846 18.8191C28.2433 18.1891 28.4976 17.5617 28.6091 16.9431L26.6409 16.5882C26.5805 16.9227 26.4286 17.3343 26.1466 17.8294L27.8846 18.8191ZM27.625 15.7656H24.9414V17.7656H27.625V15.7656Z" fill="#8A3535"/>
</g>
<defs>
<clipPath id="clip0_440_2878">
<rect width="50" height="50" fill="white"/>
</clipPath>
</defs>
</svg>
