<svg width="50" height="50" viewBox="0 0 50 50" fill="none" xmlns="http://www.w3.org/2000/svg">
<g clip-path="url(#clip0_440_2779)">
<path fill-rule="evenodd" clip-rule="evenodd" d="M25 46.875C30.8016 46.875 36.3656 44.5703 40.468 40.468C44.5703 36.3656 46.875 30.8016 46.875 25C46.875 19.1984 44.5703 13.6344 40.468 9.53204C36.3656 5.42968 30.8016 3.125 25 3.125C19.1984 3.125 13.6344 5.42968 9.53204 9.53204C5.42968 13.6344 3.125 19.1984 3.125 25C3.125 30.8016 5.42968 36.3656 9.53204 40.468C13.6344 44.5703 19.1984 46.875 25 46.875ZM25 50C31.6304 50 37.9893 47.3661 42.6777 42.6777C47.3661 37.9893 50 31.6304 50 25C50 18.3696 47.3661 12.0107 42.6777 7.32233C37.9893 2.63392 31.6304 0 25 0C18.3696 0 12.0107 2.63392 7.32233 7.32233C2.63392 12.0107 0 18.3696 0 25C0 31.6304 2.63392 37.9893 7.32233 42.6777C12.0107 47.3661 18.3696 50 25 50Z" fill="#8A3535"/>
<path d="M30.0273 19.7305C30.0273 20.4648 29.8828 21.1836 29.5938 21.8867C29.3125 22.5898 28.9375 23.2773 28.4688 23.9492C28 24.6133 27.4648 25.2539 26.8633 25.8711C26.2695 26.4883 25.6602 27.0781 25.0352 27.6406C24.4102 28.2031 23.7969 28.7344 23.1953 29.2344C22.6016 29.7266 22.0703 30.1836 21.6016 30.6055H23.8164C24.3398 30.6055 24.8906 30.5703 25.4688 30.5C26.0547 30.4297 26.6406 30.3398 27.2266 30.2305C27.8203 30.1133 28.4023 29.9805 28.9727 29.832C29.5508 29.6836 30.0938 29.5273 30.6016 29.3633C30.6562 29.5273 30.7031 29.6875 30.7422 29.8438C30.7812 29.9844 30.8164 30.1367 30.8477 30.3008C30.8789 30.457 30.8945 30.6094 30.8945 30.7578C30.8945 31.125 30.8008 31.4023 30.6133 31.5898C30.4336 31.7773 30.125 31.9141 29.6875 32C29.2578 32.0781 28.6875 32.1211 27.9766 32.1289C27.2656 32.1367 26.3828 32.1406 25.3281 32.1406C24.75 32.1406 24.1719 32.1367 23.5938 32.1289C23.0234 32.1211 22.4883 32.1094 21.9883 32.0938C21.4883 32.0859 21.043 32.0703 20.6523 32.0469C20.2695 32.0312 19.9805 32.0156 19.7852 32C19.418 31.9688 19.1719 31.8789 19.0469 31.7305C18.9297 31.5742 18.8711 31.3281 18.8711 30.9922C18.8711 31 18.9609 30.9141 19.1406 30.7344C19.3203 30.5469 19.5586 30.2969 19.8555 29.9844C20.1602 29.6719 20.5039 29.3125 20.8867 28.9062C21.2773 28.4922 21.6836 28.0625 22.1055 27.6172C22.5273 27.1641 22.9453 26.7109 23.3594 26.2578C23.7812 25.8047 24.168 25.3828 24.5195 24.9922C24.8789 24.5938 25.1914 24.2422 25.457 23.9375C25.7305 23.625 25.9258 23.3906 26.043 23.2344C26.5352 22.6016 26.9023 21.9648 27.1445 21.3242C27.3867 20.6758 27.5078 20.0508 27.5078 19.4492C27.5078 19.0352 27.4492 18.6523 27.332 18.3008C27.2227 17.9414 27.0586 17.6289 26.8398 17.3633C26.6289 17.0977 26.3672 16.8906 26.0547 16.7422C25.7422 16.5938 25.3867 16.5195 24.9883 16.5195C24.5898 16.5195 24.1875 16.5898 23.7812 16.7305C23.3828 16.8711 22.9883 17.0508 22.5977 17.2695C22.2148 17.4805 21.8438 17.7148 21.4844 17.9727C21.125 18.2227 20.7891 18.4648 20.4766 18.6992L19.5625 17.457C19.4688 17.3164 19.4219 17.1797 19.4219 17.0469C19.4219 16.8672 19.5039 16.6914 19.668 16.5195C19.832 16.3477 20.0469 16.1875 20.3125 16.0391C20.5859 15.8906 20.8984 15.7539 21.25 15.6289C21.6016 15.4961 21.9648 15.3867 22.3398 15.3008C22.7227 15.207 23.0977 15.1367 23.4648 15.0898C23.8398 15.0352 24.1875 15.0078 24.5078 15.0078C25.4766 15.0078 26.3086 15.1406 27.0039 15.4062C27.707 15.6641 28.2812 16.0156 28.7266 16.4609C29.1719 16.8984 29.5 17.4023 29.7109 17.9727C29.9219 18.5352 30.0273 19.1211 30.0273 19.7305Z" fill="#8A3535"/>
<path d="M29.5938 21.8867L28.6688 21.5065L28.6653 21.5153L29.5938 21.8867ZM28.4688 23.9492L29.2857 24.5259L29.2889 24.5214L28.4688 23.9492ZM26.8633 25.8711L26.1472 25.1731L26.1426 25.1778L26.8633 25.8711ZM23.1953 29.2344L23.8335 30.0043L23.8345 30.0034L23.1953 29.2344ZM21.6016 30.6055L20.9326 29.8622L18.9956 31.6055H21.6016V30.6055ZM25.4688 30.5L25.3496 29.5071L25.348 29.5073L25.4688 30.5ZM27.2266 30.2305L27.4101 31.2135L27.4202 31.2115L27.2266 30.2305ZM28.9727 29.832L28.724 28.8634L28.7208 28.8643L28.9727 29.832ZM30.6016 29.3633L31.5502 29.0471L31.2369 28.1071L30.2941 28.4117L30.6016 29.3633ZM30.7422 29.8438L29.772 30.0863L29.7752 30.0989L29.7787 30.1114L30.7422 29.8438ZM30.8477 30.3008L29.8653 30.4879L29.8671 30.4969L30.8477 30.3008ZM30.6133 31.5898L29.9062 30.8827L29.8987 30.8903L29.8913 30.8979L30.6133 31.5898ZM29.6875 32L29.8664 32.984L29.8802 32.9812L29.6875 32ZM23.5938 32.1289L23.5801 33.1288L23.5802 33.1288L23.5938 32.1289ZM21.9883 32.0938L22.0195 31.0942L22.0117 31.094L22.0039 31.0939L21.9883 32.0938ZM20.6523 32.0469L20.7122 31.0487L20.7027 31.0481L20.6931 31.0477L20.6523 32.0469ZM19.7852 32L19.7004 32.9964L19.7054 32.9968L19.7852 32ZM19.0469 31.7305L18.2469 32.3305L18.2638 32.353L18.282 32.3746L19.0469 31.7305ZM19.1406 30.7344L19.8477 31.4415L19.8553 31.434L19.8626 31.4263L19.1406 30.7344ZM19.8555 29.9844L19.1394 29.2862L19.1305 29.2956L19.8555 29.9844ZM20.8867 28.9062L20.1593 28.22L20.1589 28.2204L20.8867 28.9062ZM22.1055 27.6172L22.8314 28.305L22.8374 28.2986L22.1055 27.6172ZM23.3594 26.2578L22.6274 25.5764L22.6212 25.5832L23.3594 26.2578ZM24.5195 24.9922L23.777 24.3224L23.7762 24.3232L24.5195 24.9922ZM25.457 23.9375L24.7045 23.279L24.7033 23.2804L25.457 23.9375ZM26.043 23.2344L25.2536 22.6204L25.2482 22.6274L25.243 22.6344L26.043 23.2344ZM27.1445 21.3242L28.0799 21.6778L28.0813 21.6741L27.1445 21.3242ZM27.332 18.3008L26.3754 18.5919L26.3792 18.6045L26.3833 18.617L27.332 18.3008ZM26.8398 17.3633L26.0567 17.9852L26.0623 17.9921L26.0679 17.999L26.8398 17.3633ZM23.7812 16.7305L23.4541 15.7855L23.4484 15.7875L23.7812 16.7305ZM22.5977 17.2695L23.0803 18.1454L23.0863 18.142L22.5977 17.2695ZM21.4844 17.9727L22.0554 18.7936L22.0614 18.7894L22.0673 18.7852L21.4844 17.9727ZM20.4766 18.6992L19.6711 19.2919L20.2692 20.1047L21.0766 19.4992L20.4766 18.6992ZM19.5625 17.457L18.7304 18.0117L18.7433 18.031L18.7571 18.0497L19.5625 17.457ZM20.3125 16.0391L19.8354 15.1601L19.8247 15.1661L20.3125 16.0391ZM21.25 15.6289L21.585 16.5711L21.5942 16.5678L21.6034 16.5644L21.25 15.6289ZM22.3398 15.3008L22.5632 16.2755L22.5705 16.2738L22.5777 16.2721L22.3398 15.3008ZM23.4648 15.0898L23.5915 16.0818L23.6003 16.0807L23.6091 16.0794L23.4648 15.0898ZM27.0039 15.4062L26.647 16.3405L26.6597 16.3451L27.0039 15.4062ZM28.7266 16.4609L28.0194 17.1681L28.0257 17.1743L28.7266 16.4609ZM29.7109 17.9727L28.773 18.3196L28.7746 18.3238L29.7109 17.9727ZM29.0273 19.7305C29.0273 20.3298 28.9101 20.9197 28.6689 21.5065L30.5186 22.267C30.8555 21.4475 31.0273 20.5999 31.0273 19.7305H29.0273ZM28.6653 21.5153C28.4146 22.1421 28.0772 22.7627 27.6486 23.377L29.2889 24.5214C29.7978 23.792 30.2104 23.0376 30.5222 22.2581L28.6653 21.5153ZM27.6518 23.3725C27.2152 23.9911 26.7142 24.5914 26.1472 25.1731L27.5794 26.5691C28.2155 25.9164 28.7848 25.2355 29.2857 24.5259L27.6518 23.3725ZM26.1426 25.1778C25.5652 25.778 24.973 26.3512 24.3662 26.8973L25.7041 28.3839C26.3473 27.8051 26.9739 27.1985 27.5839 26.5644L26.1426 25.1778ZM24.3662 26.8973C23.7502 27.4517 23.1469 27.9743 22.5561 28.4653L23.8345 30.0034C24.4469 29.4944 25.0701 28.9545 25.7041 28.3839L24.3662 26.8973ZM22.5571 28.4645C21.9551 28.9635 21.4133 29.4295 20.9326 29.8622L22.2705 31.3488C22.7273 30.9377 23.248 30.4896 23.8335 30.0043L22.5571 28.4645ZM21.6016 31.6055H23.8164V29.6055H21.6016V31.6055ZM23.8164 31.6055C24.3844 31.6055 24.9757 31.5673 25.5895 31.4927L25.348 29.5073C24.8056 29.5733 24.2953 29.6055 23.8164 29.6055V31.6055ZM25.5879 31.4929C26.1956 31.42 26.803 31.3268 27.4101 31.2135L27.0431 29.2474C26.4783 29.3529 25.9138 29.4394 25.3496 29.5071L25.5879 31.4929ZM27.4202 31.2115C28.033 31.0906 28.6344 30.9534 29.2245 30.7998L28.7208 28.8643C28.1702 29.0076 27.6077 29.136 27.0329 29.2494L27.4202 31.2115ZM29.2213 30.8006C29.8169 30.6477 30.3797 30.4859 30.909 30.3149L30.2941 28.4117C29.8078 28.5688 29.2846 28.7195 28.724 28.8634L29.2213 30.8006ZM29.6529 29.6795C29.7001 29.8211 29.7396 29.9566 29.772 30.0863L31.7123 29.6012C31.6666 29.4184 31.6124 29.2336 31.5502 29.0471L29.6529 29.6795ZM29.7787 30.1114C29.8094 30.222 29.8385 30.3471 29.8653 30.4879L31.83 30.1137C31.7943 29.9263 31.7531 29.7468 31.7057 29.5761L29.7787 30.1114ZM29.8671 30.4969C29.8863 30.5933 29.8945 30.6798 29.8945 30.7578H31.8945C31.8945 30.5389 31.8715 30.3208 31.8282 30.1047L29.8671 30.4969ZM29.8945 30.7578C29.8945 30.859 29.8813 30.9079 29.8769 30.921C29.875 30.9267 29.8754 30.9235 29.8807 30.9147C29.8862 30.9056 29.8947 30.8942 29.9062 30.8827L31.3204 32.297C31.758 31.8594 31.8945 31.2862 31.8945 30.7578H29.8945ZM29.8913 30.8979C29.9142 30.874 29.9112 30.8881 29.842 30.9187C29.7735 30.9491 29.6623 30.9858 29.4948 31.0188L29.8802 32.9812C30.3906 32.881 30.9433 32.6908 31.3353 32.2817L29.8913 30.8979ZM29.5086 31.0161C29.1578 31.0799 28.6505 31.1214 27.9656 31.129L27.9876 33.1288C28.7245 33.1207 29.3578 33.0763 29.8664 32.9839L29.5086 31.0161ZM27.9656 31.129C27.2596 31.1367 26.3807 31.1406 25.3281 31.1406V33.1406C26.3849 33.1406 27.2717 33.1367 27.9876 33.1288L27.9656 31.129ZM25.3281 31.1406C24.7545 31.1406 24.1809 31.1367 23.6073 31.129L23.5802 33.1288C24.1629 33.1367 24.7455 33.1406 25.3281 33.1406V31.1406ZM23.6074 31.129C23.0422 31.1213 22.5129 31.1097 22.0195 31.0942L21.957 33.0933C22.4636 33.1091 23.0047 33.1209 23.5801 33.1288L23.6074 31.129ZM22.0039 31.0939C21.5148 31.0862 21.0847 31.071 20.7122 31.0487L20.5925 33.0451C21.0012 33.0696 21.4617 33.0856 21.9727 33.0936L22.0039 31.0939ZM20.6931 31.0477C20.3135 31.0322 20.0402 31.0172 19.8649 31.0032L19.7054 32.9968C19.9207 33.014 20.2255 33.0303 20.6116 33.046L20.6931 31.0477ZM19.87 31.0036C19.8084 30.9984 19.7612 30.9914 19.7262 30.9845C19.6909 30.9776 19.6729 30.9715 19.6681 30.9698C19.6633 30.9681 19.6778 30.9727 19.7036 30.9893C19.7303 31.0065 19.7704 31.0372 19.8118 31.0863L18.282 32.3746C18.6782 32.8451 19.2804 32.9607 19.7004 32.9964L19.87 31.0036ZM19.8469 31.1305C19.8909 31.1892 19.8944 31.2245 19.8878 31.1971C19.8814 31.17 19.8711 31.1059 19.8711 30.9922H17.8711C17.8711 31.4046 17.9355 31.9154 18.2469 32.3305L19.8469 31.1305ZM17.8711 30.9922C17.8711 31.1027 17.8897 31.2917 18.0043 31.491C18.1313 31.7119 18.3292 31.8628 18.5428 31.9371C18.8838 32.0557 19.1666 31.9489 19.2007 31.937C19.3427 31.8877 19.4416 31.8149 19.4464 31.8116C19.4966 31.7767 19.5352 31.7428 19.5441 31.7351C19.5742 31.7089 19.6053 31.6796 19.6297 31.6562C19.683 31.6052 19.7569 31.5324 19.8477 31.4415L18.4335 30.0273C18.3447 30.1161 18.2838 30.176 18.2473 30.211C18.2267 30.2306 18.2241 30.2325 18.2318 30.2259C18.2346 30.2234 18.2412 30.2177 18.2504 30.2102C18.2578 30.2043 18.2773 30.1886 18.3042 30.1698C18.3062 30.1685 18.403 30.097 18.5436 30.0481C18.577 30.0365 18.8592 29.9297 19.1999 30.0481C19.4133 30.1224 19.6111 30.2732 19.7381 30.494C19.8526 30.6931 19.8711 30.8819 19.8711 30.9922H17.8711ZM19.8626 31.4263C20.0437 31.2373 20.2831 30.9861 20.5805 30.6731L19.1305 29.2956C18.834 29.6077 18.5969 29.8565 18.4186 30.0425L19.8626 31.4263ZM20.5715 30.6825C20.881 30.365 21.2288 30.0014 21.6145 29.5921L20.1589 28.2204C19.779 28.6236 19.4393 28.9788 19.1395 29.2863L20.5715 30.6825ZM21.6141 29.5925C22.0042 29.179 22.41 28.7498 22.8314 28.3049L21.3795 26.9294C20.9572 27.3752 20.5505 27.8054 20.1593 28.22L21.6141 29.5925ZM22.8374 28.2986C23.2613 27.8432 23.6814 27.3878 24.0976 26.9324L22.6212 25.5832C22.2092 26.0341 21.7934 26.4849 21.3736 26.9358L22.8374 28.2986ZM24.0913 26.9392C24.5163 26.4827 24.9069 26.0566 25.2628 25.6612L23.7762 24.3232C23.429 24.709 23.0462 25.1267 22.6275 25.5764L24.0913 26.9392ZM25.2621 25.662C25.6241 25.2606 25.9405 24.9047 26.2108 24.5946L24.7033 23.2804C24.4423 23.5797 24.1337 23.9269 23.777 24.3224L25.2621 25.662ZM26.2096 24.596C26.4855 24.2807 26.7018 24.0226 26.843 23.8344L25.243 22.6344C25.1498 22.7587 24.9754 22.9693 24.7045 23.279L26.2096 24.596ZM26.8323 23.8483C27.3757 23.1496 27.7969 22.4264 28.0799 21.6778L26.2091 20.9706C26.0078 21.5033 25.6946 22.0535 25.2536 22.6204L26.8323 23.8483ZM28.0813 21.6741C28.3591 20.9304 28.5078 20.1868 28.5078 19.4492H26.5078C26.5078 19.9148 26.4143 20.4212 26.2077 20.9743L28.0813 21.6741ZM28.5078 19.4492C28.5078 18.9402 28.4356 18.4493 28.2807 17.9846L26.3833 18.617C26.4628 18.8554 26.5078 19.1302 26.5078 19.4492H28.5078ZM28.2887 18.0096C28.1446 17.536 27.9216 17.1037 27.6118 16.7276L26.0679 17.999C26.1956 18.1541 26.3008 18.3468 26.3754 18.5919L28.2887 18.0096ZM27.623 16.7414C27.3151 16.3537 26.9314 16.0515 26.4837 15.8389L25.6256 17.6455C25.803 17.7297 25.9427 17.8416 26.0567 17.9852L27.623 16.7414ZM26.4837 15.8389C26.0182 15.6178 25.5127 15.5195 24.9883 15.5195V17.5195C25.2608 17.5195 25.4661 17.5697 25.6256 17.6455L26.4837 15.8389ZM24.9883 15.5195C24.47 15.5195 23.9573 15.6113 23.4541 15.7855L24.1084 17.6755C24.4177 17.5684 24.7097 17.5195 24.9883 17.5195V15.5195ZM23.4484 15.7875C22.9931 15.9482 22.5466 16.152 22.1091 16.397L23.0863 18.142C23.43 17.9495 23.7726 17.794 24.1141 17.6735L23.4484 15.7875ZM22.1151 16.3937C21.6972 16.624 21.2926 16.8795 20.9015 17.1601L22.0673 18.7852C22.3949 18.5502 22.7325 18.337 23.0803 18.1454L22.1151 16.3937ZM20.9133 17.1518C20.5453 17.4078 20.1996 17.6569 19.8766 17.8992L21.0766 19.4992C21.3785 19.2728 21.7047 19.0376 22.0554 18.7936L20.9133 17.1518ZM21.282 18.1065L20.3679 16.8644L18.7571 18.0497L19.6711 19.2919L21.282 18.1065ZM20.3946 16.9023C20.3806 16.8814 20.4219 16.9347 20.4219 17.0469H18.4219C18.4219 17.4246 18.5569 17.7514 18.7304 18.0117L20.3946 16.9023ZM20.4219 17.0469C20.4219 17.1145 20.4054 17.1693 20.3896 17.2032C20.3756 17.2331 20.3681 17.2343 20.3913 17.21L18.9446 15.8291C18.6619 16.1253 18.4219 16.5358 18.4219 17.0469H20.4219ZM20.3913 17.21C20.4702 17.1273 20.5987 17.0247 20.8003 16.912L19.8247 15.1661C19.495 15.3503 19.1938 15.568 18.9446 15.8291L20.3913 17.21ZM20.7896 16.9179C21.0095 16.7986 21.2731 16.682 21.585 16.5711L20.915 14.6867C20.5238 14.8258 20.1624 14.9827 19.8354 15.1602L20.7896 16.9179ZM21.6034 16.5644C21.9116 16.448 22.2314 16.3516 22.5632 16.2755L22.1165 14.326C21.6983 14.4219 21.2916 14.5442 20.8966 14.6934L21.6034 16.5644ZM22.5777 16.2721C22.9262 16.1867 23.264 16.1236 23.5915 16.0818L23.3382 14.0979C22.9313 14.1498 22.5191 14.2273 22.102 14.3295L22.5777 16.2721ZM23.6091 16.0794C23.9447 16.0304 24.2436 16.0078 24.5078 16.0078V14.0078C24.1314 14.0078 23.7349 14.0399 23.3205 14.1003L23.6091 16.0794ZM24.5078 16.0078C25.3895 16.0078 26.0943 16.1292 26.647 16.3404L27.3608 14.4721C26.5229 14.152 25.5636 14.0078 24.5078 14.0078V16.0078ZM26.6597 16.3451C27.2519 16.5623 27.6944 16.843 28.0195 17.168L29.4337 15.7538C28.8681 15.1882 28.1622 14.7658 27.3482 14.4674L26.6597 16.3451ZM28.0257 17.1743C28.3689 17.5114 28.6146 17.8911 28.773 18.3196L30.6488 17.6258C30.3854 16.9136 29.9749 16.2855 29.4274 15.7476L28.0257 17.1743ZM28.7746 18.3238C28.9428 18.7724 29.0273 19.2392 29.0273 19.7305H31.0273C31.0273 19.0029 30.9009 18.2979 30.6473 17.6215L28.7746 18.3238Z" fill="#8A3535"/>
</g>
<defs>
<clipPath id="clip0_440_2779">
<rect width="50" height="50" fill="white"/>
</clipPath>
</defs>
</svg>
