<svg width="50" height="50" viewBox="0 0 50 50" fill="none" xmlns="http://www.w3.org/2000/svg">
<g clip-path="url(#clip0_440_2659)">
<path fill-rule="evenodd" clip-rule="evenodd" d="M25 46.875C30.8016 46.875 36.3656 44.5703 40.468 40.468C44.5703 36.3656 46.875 30.8016 46.875 25C46.875 19.1984 44.5703 13.6344 40.468 9.53204C36.3656 5.42968 30.8016 3.125 25 3.125C19.1984 3.125 13.6344 5.42968 9.53204 9.53204C5.42968 13.6344 3.125 19.1984 3.125 25C3.125 30.8016 5.42968 36.3656 9.53204 40.468C13.6344 44.5703 19.1984 46.875 25 46.875ZM25 50C31.6304 50 37.9893 47.3661 42.6777 42.6777C47.3661 37.9893 50 31.6304 50 25C50 18.3696 47.3661 12.0107 42.6777 7.32233C37.9893 2.63392 31.6304 0 25 0C18.3696 0 12.0107 2.63392 7.32233 7.32233C2.63392 12.0107 0 18.3696 0 25C0 31.6304 2.63392 37.9893 7.32233 42.6777C12.0107 47.3661 18.3696 50 25 50Z" fill="#8A3535"/>
<path d="M26.9102 28.3086C26.9102 28.8086 26.9219 29.25 26.9453 29.6328C26.9766 30.0156 27.0117 30.3516 27.0508 30.6406C27.0898 30.9219 27.1289 31.1602 27.168 31.3555C27.207 31.543 27.2383 31.6953 27.2617 31.8125C26.793 32.0781 26.332 32.2109 25.8789 32.2109C25.4648 32.2109 25.1289 32.1289 24.8711 31.9648C24.6133 31.793 24.4844 31.4844 24.4844 31.0391V16.9297L21.4844 18.0078L21.0977 17.0234C21.3633 16.8438 21.6992 16.6484 22.1055 16.4375C22.5117 16.2266 22.9414 16.0312 23.3945 15.8516C23.8555 15.6719 24.3203 15.5234 24.7891 15.4062C25.2578 15.2812 25.6914 15.2188 26.0898 15.2188C26.2695 15.2188 26.4102 15.2383 26.5117 15.2773C26.6211 15.3086 26.7031 15.3594 26.7578 15.4297C26.8203 15.5 26.8594 15.5898 26.875 15.6992C26.8984 15.8008 26.9102 15.9219 26.9102 16.0625V28.3086Z" fill="#8A3535"/>
<path d="M26.9453 29.6328L25.9472 29.6939L25.9478 29.7041L25.9486 29.7142L26.9453 29.6328ZM27.0508 30.6406L26.0598 30.7745L26.0603 30.7782L27.0508 30.6406ZM27.168 31.3555L26.1874 31.5516L26.189 31.5594L27.168 31.3555ZM27.2617 31.8125L27.7547 32.6825L28.3842 32.3258L28.2423 31.6164L27.2617 31.8125ZM24.8711 31.9648L24.3164 32.7969L24.3252 32.8028L24.3342 32.8085L24.8711 31.9648ZM24.4844 16.9297H25.4844V15.5077L24.1462 15.9886L24.4844 16.9297ZM21.4844 18.0078L20.5536 18.3735L20.9087 19.2773L21.8226 18.9489L21.4844 18.0078ZM21.0977 17.0234L20.5373 16.1952L19.8741 16.6438L20.1669 17.3891L21.0977 17.0234ZM23.3945 15.8516L23.0313 14.9198L23.0259 14.922L23.3945 15.8516ZM24.7891 15.4062L25.0316 16.3764L25.0392 16.3745L25.0467 16.3725L24.7891 15.4062ZM26.5117 15.2773L26.1527 16.2107L26.1942 16.2267L26.237 16.2389L26.5117 15.2773ZM26.7578 15.4297L25.9685 16.0436L25.9886 16.0695L26.0104 16.0941L26.7578 15.4297ZM26.875 15.6992L25.885 15.8406L25.8911 15.8827L25.9006 15.9241L26.875 15.6992ZM25.9102 28.3086C25.9102 28.8232 25.9222 29.2857 25.9472 29.6939L27.9434 29.5717C27.9216 29.2143 27.9102 28.7939 27.9102 28.3086H25.9102ZM25.9486 29.7142C25.9809 30.1094 26.0178 30.4636 26.0598 30.7745L28.0418 30.5067C28.0057 30.2396 27.9722 29.9218 27.942 29.5515L25.9486 29.7142ZM26.0603 30.7782C26.101 31.0716 26.1432 31.3306 26.1874 31.5516L28.1486 31.1594C28.1146 30.9897 28.0787 30.7722 28.0413 30.5031L26.0603 30.7782ZM26.189 31.5594C26.2278 31.7457 26.2584 31.8951 26.2811 32.0086L28.2423 31.6164C28.2181 31.4955 28.1863 31.3403 28.1469 31.1515L26.189 31.5594ZM26.7687 30.9425C26.4218 31.139 26.1292 31.2109 25.8789 31.2109V33.2109C26.5349 33.2109 27.1641 33.0172 27.7547 32.6825L26.7687 30.9425ZM25.8789 31.2109C25.5895 31.2109 25.4578 31.1529 25.408 31.1212L24.3342 32.8085C24.8 33.1049 25.3401 33.2109 25.8789 33.2109V31.2109ZM25.4258 31.1328C25.4457 31.1461 25.4651 31.1636 25.4809 31.1833C25.4964 31.2025 25.5028 31.2166 25.5038 31.219C25.5045 31.2207 25.4994 31.2091 25.4942 31.1789C25.489 31.1485 25.4844 31.1029 25.4844 31.0391H23.4844C23.4844 31.6613 23.6709 32.3666 24.3164 32.7969L25.4258 31.1328ZM25.4844 31.0391V16.9297H23.4844V31.0391H25.4844ZM24.1462 15.9886L21.1462 17.0667L21.8226 18.9489L24.8226 17.8708L24.1462 15.9886ZM22.4151 17.6422L22.0284 16.6578L20.1669 17.3891L20.5536 18.3735L22.4151 17.6422ZM21.658 17.8517C21.8813 17.7006 22.1811 17.525 22.5663 17.325L21.6447 15.55C21.2173 15.7719 20.8453 15.9869 20.5373 16.1952L21.658 17.8517ZM22.5663 17.325C22.9407 17.1306 23.3394 16.9492 23.7632 16.7811L23.0259 14.922C22.5434 15.1133 22.0828 15.3225 21.6447 15.55L22.5663 17.325ZM23.7577 16.7833C24.1802 16.6186 24.6048 16.4831 25.0316 16.3764L24.5465 14.4361C24.0358 14.5638 23.5307 14.7252 23.0313 14.9199L23.7577 16.7833ZM25.0467 16.3725C25.4489 16.2652 25.7948 16.2188 26.0898 16.2188V14.2188C25.588 14.2188 25.0667 14.2973 24.5314 14.44L25.0467 16.3725ZM26.0898 16.2188C26.1451 16.2188 26.1779 16.2219 26.1925 16.2239C26.1993 16.2248 26.1991 16.2251 26.1931 16.2237C26.1872 16.2222 26.173 16.2185 26.1527 16.2107L26.8707 14.344C26.604 14.2414 26.3229 14.2188 26.0898 14.2188V16.2188ZM26.237 16.2389C26.1991 16.228 26.0762 16.1821 25.9685 16.0436L27.5472 14.8157C27.3301 14.5366 27.0431 14.3891 26.7864 14.3158L26.237 16.2389ZM26.0104 16.0941C25.921 15.9935 25.8922 15.891 25.885 15.8406L27.865 15.5578C27.8265 15.2887 27.7196 15.0065 27.5052 14.7653L26.0104 16.0941ZM25.9006 15.9241C25.9023 15.9314 25.9102 15.9732 25.9102 16.0625H27.9102C27.9102 15.8706 27.8946 15.6702 27.8494 15.4744L25.9006 15.9241ZM25.9102 16.0625V28.3086H27.9102V16.0625H25.9102Z" fill="#8A3535"/>
</g>
<defs>
<clipPath id="clip0_440_2659">
<rect width="50" height="50" fill="white"/>
</clipPath>
</defs>
</svg>
